<svg width="34" height="30" viewBox="0 0 34 30" fill="none" xmlns="http://www.w3.org/2000/svg">
<g clip-path="url(#clip0_638_285)">
<path d="M22.4601 25.8693C22.5884 25.8907 22.7195 25.8867 22.8462 25.8574C22.9728 25.8281 23.0925 25.7741 23.1982 25.6985C23.304 25.623 23.3938 25.5273 23.4625 25.4169C23.5312 25.3066 23.5775 25.1838 23.5988 25.0555L24.5885 19.1184C24.6317 18.8595 24.5703 18.5941 24.4177 18.3804C24.2652 18.1668 24.0341 18.0225 23.7752 17.9793C23.5163 17.9361 23.2509 17.9975 23.0372 18.15C22.8236 18.3025 22.6793 18.5336 22.6361 18.7925L21.6464 24.7296C21.6249 24.8579 21.629 24.9891 21.6582 25.1158C21.6875 25.2426 21.7415 25.3623 21.8171 25.4681C21.8926 25.574 21.9883 25.6638 22.0987 25.7327C22.209 25.8015 22.3319 25.8479 22.4601 25.8693Z" fill="black"/>
<path d="M10.6975 25.0585C10.7434 25.3149 10.8884 25.5428 11.1012 25.693C11.3139 25.8431 11.5773 25.9033 11.8342 25.8606C12.0911 25.8179 12.3208 25.6756 12.4735 25.4646C12.6262 25.2536 12.6896 24.991 12.6499 24.7336L11.6602 18.7965C11.617 18.5376 11.4727 18.3065 11.2591 18.154C11.0455 18.0015 10.78 17.9401 10.5211 17.9833C10.2622 18.0265 10.0311 18.1708 9.87855 18.3844C9.72604 18.598 9.66463 18.8635 9.70785 19.1224L10.6975 25.0585Z" fill="black"/>
<path d="M33.0111 10.0527H29.5273L21.9103 0.527918C21.7458 0.324564 21.5076 0.194606 21.2477 0.166444C20.9877 0.138283 20.7272 0.21421 20.523 0.37763C20.3189 0.54105 20.1877 0.778675 20.1581 1.03857C20.1286 1.29847 20.2031 1.5595 20.3653 1.76463L26.994 10.0527H7.23686L13.8655 1.76363C13.9556 1.6635 14.0242 1.54603 14.0673 1.41843C14.1104 1.29084 14.127 1.15579 14.1161 1.02155C14.1051 0.887315 14.067 0.756719 14.0039 0.637755C13.9408 0.518792 13.854 0.413964 13.749 0.32969C13.644 0.245416 13.5229 0.183468 13.3932 0.147638C13.2634 0.111809 13.1277 0.10285 12.9943 0.121314C12.861 0.139777 12.7328 0.185273 12.6176 0.255016C12.5024 0.324758 12.4027 0.41728 12.3245 0.526919L4.70351 10.0527H1.22178C0.959384 10.0527 0.707737 10.157 0.522197 10.3426C0.336657 10.5282 0.232422 10.7799 0.232422 11.0424L0.232422 15.0015C0.232422 15.1315 0.258012 15.2602 0.307732 15.3803C0.357452 15.5004 0.430327 15.6095 0.522197 15.7014C0.614067 15.7933 0.723133 15.8662 0.843167 15.9159C0.963201 15.9657 1.09185 15.9913 1.22178 15.9913H2.45397L6.20553 29.1282C6.2646 29.335 6.38941 29.5169 6.56107 29.6465C6.73274 29.776 6.9419 29.846 7.15691 29.846H27.0739C27.2889 29.846 27.4981 29.776 27.6698 29.6465C27.8414 29.5169 27.9662 29.335 28.0253 29.1282L31.7769 15.9913H33.0111C33.141 15.9913 33.2696 15.9657 33.3897 15.9159C33.5097 15.8662 33.6188 15.7933 33.7106 15.7014C33.8025 15.6095 33.8754 15.5004 33.9251 15.3803C33.9748 15.2602 34.0004 15.1315 34.0004 15.0015V11.0424C34.0004 10.9125 33.9748 10.7838 33.9251 10.6637C33.8754 10.5436 33.8025 10.4345 33.7106 10.3426C33.6188 10.2507 33.5097 10.1778 33.3897 10.128C33.2696 10.0783 33.141 10.0527 33.0111 10.0527ZM26.3274 27.8655H7.90342L4.51163 15.9893H29.7192L26.3274 27.8655ZM32.0237 14.0107H2.21113V12.0312H32.0197L32.0237 14.0107Z" fill="black"/>
<path d="M17.1157 25.8853C17.2456 25.8853 17.3743 25.8597 17.4944 25.8099C17.6145 25.7602 17.7236 25.6873 17.8155 25.5954C17.9074 25.5035 17.9803 25.3944 18.03 25.2743C18.0798 25.1543 18.1053 25.0255 18.1053 24.8956V18.9585C18.1053 18.696 18.0011 18.4443 17.8155 18.2587C17.6299 18.0731 17.3781 17.9688 17.1157 17.9688C16.8532 17.9688 16.6014 18.0731 16.4158 18.2587C16.2302 18.4443 16.126 18.696 16.126 18.9585V24.8956C16.126 25.1581 16.2302 25.4098 16.4158 25.5954C16.6014 25.781 16.8532 25.8853 17.1157 25.8853Z" fill="black"/>
</g>
<defs>
<clipPath id="clip0_638_285">
<rect width="33.77" height="29.69" fill="white" transform="translate(0.230469 0.154999)"/>
</clipPath>
</defs>
</svg>
