<svg width="49" height="72" viewBox="0 0 49 72" fill="none" xmlns="http://www.w3.org/2000/svg">
<path d="M3.84419 71.1016C3.76191 71.0714 3.6852 71.0278 3.61719 70.9726L3.69119 70.8186C3.75032 70.8692 3.81806 70.9088 3.89119 70.9356C3.97394 70.9652 4.06131 70.9797 4.14919 70.9786C4.23669 70.9843 4.32402 70.9652 4.40119 70.9236C4.42857 70.9071 4.451 70.8835 4.46613 70.8554C4.48127 70.8272 4.48854 70.7955 4.48719 70.7636C4.48821 70.7422 4.48494 70.7208 4.47755 70.7007C4.47016 70.6806 4.45882 70.6622 4.44419 70.6466C4.40838 70.6183 4.36905 70.5947 4.32719 70.5766L4.13719 70.5276C4.04888 70.509 3.9625 70.4822 3.87919 70.4476C3.81786 70.4237 3.76304 70.3856 3.71919 70.3366C3.68031 70.2721 3.6671 70.1953 3.68219 70.1216C3.68048 70.0479 3.70209 69.9755 3.74393 69.9148C3.78577 69.8541 3.8457 69.8082 3.91519 69.7836C4.00839 69.7441 4.10903 69.7254 4.21019 69.7286C4.28993 69.7195 4.37044 69.7195 4.45019 69.7286C4.5227 69.7445 4.59091 69.7759 4.65019 69.8206L4.58919 69.9806C4.53161 69.9445 4.46981 69.9156 4.40519 69.8946C4.33881 69.8858 4.27157 69.8858 4.20519 69.8946C4.11708 69.8904 4.02962 69.9115 3.95319 69.9556C3.92663 69.9729 3.90485 69.9967 3.88983 70.0246C3.87481 70.0526 3.86702 70.0838 3.86719 70.1156C3.86695 70.1374 3.87117 70.159 3.8796 70.1791C3.88802 70.1992 3.90048 70.2174 3.91619 70.2326C3.94964 70.2636 3.98962 70.2869 4.03319 70.3006L4.22319 70.3556C4.30881 70.3743 4.39302 70.399 4.47519 70.4296C4.53907 70.4547 4.59599 70.4949 4.64119 70.5466C4.68735 70.6028 4.71152 70.6739 4.70919 70.7466C4.7101 70.8179 4.68878 70.8878 4.64819 70.9466C4.60457 71.0106 4.54247 71.0598 4.47019 71.0876C4.37648 71.1248 4.27589 71.1415 4.17519 71.1366C4.06092 71.1411 3.94669 71.1265 3.83719 71.0936L3.84419 71.1016Z" fill="#231F20"/>
<path d="M6.20769 71.0595C6.09723 71 6.00575 70.9106 5.94369 70.8015C5.88108 70.6913 5.8493 70.5663 5.85169 70.4395C5.85021 70.3129 5.88193 70.1881 5.94369 70.0775C6.00763 69.9715 6.09878 69.8845 6.20769 69.8255C6.3226 69.7629 6.45183 69.7312 6.58269 69.7335C6.68374 69.7316 6.78412 69.7503 6.87769 69.7885C6.96674 69.823 7.04652 69.8778 7.11069 69.9485L6.98169 70.0715C6.93151 70.0182 6.87043 69.9763 6.80262 69.9487C6.7348 69.9211 6.66184 69.9084 6.58869 69.9115C6.4922 69.9085 6.39674 69.9321 6.31269 69.9795C6.22923 70.0224 6.15983 70.0884 6.11269 70.1695C6.06491 70.2513 6.04133 70.3449 6.04469 70.4395C6.04083 70.5342 6.06444 70.628 6.11269 70.7095C6.15872 70.7941 6.22816 70.8635 6.31269 70.9095C6.3981 70.9535 6.49264 70.9768 6.58869 70.9775C6.66219 70.9791 6.7352 70.9651 6.80292 70.9365C6.87065 70.9079 6.93156 70.8653 6.98169 70.8115L7.11069 70.9345C7.04838 71.0074 6.96803 71.0625 6.87769 71.0945C6.7838 71.1316 6.68364 71.1503 6.58269 71.1495C6.45265 71.1509 6.32414 71.1214 6.20769 71.0635V71.0595Z" fill="#231F20"/>
<path d="M8.5161 70.9915C8.46117 70.9299 8.41922 70.8579 8.39276 70.7797C8.3663 70.7015 8.35587 70.6188 8.3621 70.5365V69.7445H8.5621V70.5245C8.5621 70.8245 8.6911 70.9725 8.9551 70.9725C9.0084 70.9757 9.06175 70.9674 9.11159 70.9482C9.16143 70.9291 9.20661 70.8995 9.2441 70.8615C9.31865 70.7654 9.35434 70.6447 9.3441 70.5235V69.7435H9.5441V70.5355C9.54953 70.6182 9.53815 70.7012 9.51065 70.7794C9.48315 70.8576 9.4401 70.9294 9.3841 70.9905C9.3271 71.0447 9.2594 71.0864 9.18536 71.1129C9.11131 71.1394 9.03255 71.1502 8.9541 71.1445C8.87572 71.1495 8.79715 71.1384 8.72322 71.1119C8.64928 71.0854 8.58152 71.0441 8.5241 70.9905L8.5161 70.9915Z" fill="#231F20"/>
<path d="M12.0477 70.5375C12.0993 70.5992 12.1258 70.6782 12.1217 70.7585C12.1242 70.8128 12.1125 70.8668 12.0877 70.9152C12.063 70.9636 12.0261 71.0047 11.9807 71.0345C11.8648 71.1114 11.7262 71.1467 11.5877 71.1345H10.9297V69.7455H11.5437C11.6718 69.7402 11.7984 69.7752 11.9057 69.8455C11.9491 69.8741 11.9844 69.9134 12.0081 69.9597C12.0318 70.006 12.043 70.0576 12.0407 70.1095C12.043 70.1752 12.0237 70.2399 11.9857 70.2935C11.9546 70.3475 11.9074 70.3905 11.8507 70.4165C11.9297 70.4328 12.0005 70.4763 12.0507 70.5395L12.0477 70.5375ZM11.1297 69.9235V70.3655H11.5297C11.6119 70.3714 11.6938 70.3499 11.7627 70.3045C11.789 70.2873 11.8102 70.2634 11.8242 70.2353C11.8383 70.2072 11.8447 70.1759 11.8427 70.1445C11.8451 70.1123 11.839 70.0799 11.825 70.0508C11.8109 70.0216 11.7894 69.9967 11.7627 69.9785C11.6919 69.9382 11.611 69.9191 11.5297 69.9235H11.1297ZM11.8357 70.9305C11.8642 70.9108 11.8871 70.8841 11.9022 70.8529C11.9173 70.8217 11.924 70.7871 11.9217 70.7525C11.9217 70.5985 11.8107 70.5255 11.5837 70.5255H11.1297V70.9865H11.5847C11.6734 70.9883 11.7609 70.9647 11.8367 70.9185L11.8357 70.9305Z" fill="#231F20"/>
<path d="M14.2942 70.7886H13.5572L13.4102 71.1326H13.2012L13.8152 69.7446H14.0152L14.6292 71.1326H14.4202L14.2942 70.7886ZM14.2262 70.6286L13.9262 69.9466L13.6312 70.6286H14.2262Z" fill="#231F20"/>
<path d="M17.3711 69.7456H17.9541C18.0888 69.7425 18.2221 69.7742 18.3411 69.8376C18.4509 69.8897 18.5428 69.9732 18.6051 70.0776C18.6693 70.1876 18.7032 70.3127 18.7032 70.4401C18.7032 70.5674 18.6693 70.6925 18.6051 70.8026C18.5437 70.9091 18.4517 70.9949 18.3411 71.0486C18.2206 71.1072 18.0881 71.1366 17.9541 71.1346H17.3711V69.7456ZM17.9421 70.9736C18.0444 70.9744 18.1455 70.9511 18.2371 70.9056C18.3214 70.8667 18.3914 70.8024 18.4371 70.7216C18.4881 70.6409 18.5139 70.5469 18.5111 70.4516C18.5126 70.3564 18.487 70.2627 18.4371 70.1816C18.3914 70.1007 18.3214 70.0364 18.2371 69.9976C18.1455 69.952 18.0444 69.9287 17.9421 69.9296H17.5671V70.9736H17.9421Z" fill="#231F20"/>
<path d="M19.9922 69.7446H20.1922V71.1326H19.9922V69.7446Z" fill="#231F20"/>
<path d="M22.7871 69.7456L22.1731 71.1336H21.9831L21.3691 69.7456H21.5781L22.1061 70.8636L22.6061 69.7216L22.7871 69.7456Z" fill="#231F20"/>
<path d="M23.9473 69.7446H24.1473V71.1326H23.9473V69.7446Z" fill="#231F20"/>
<path d="M26.7399 69.7446V71.1326H26.5799L25.7449 70.1006V71.1326H25.5449V69.7446H25.7109L26.5399 70.7826V69.7446H26.7399Z" fill="#231F20"/>
<path d="M29.1054 70.4325H29.2954V70.9725C29.2239 71.0298 29.1426 71.0736 29.0554 71.1015C28.9621 71.1317 28.8644 71.1462 28.7664 71.1445C28.6364 71.1452 28.508 71.1158 28.3914 71.0585C28.2809 70.999 28.1894 70.9096 28.1274 70.8005C28.0631 70.6905 28.0293 70.5654 28.0293 70.438C28.0293 70.3106 28.0631 70.1855 28.1274 70.0755C28.1895 69.9681 28.2811 69.8806 28.3914 69.8235C28.5084 69.7607 28.6396 69.729 28.7724 69.7315C28.875 69.7304 28.9768 69.7491 29.0724 69.7865C29.1614 69.821 29.2412 69.8758 29.3054 69.9465L29.1824 70.0695C29.0904 69.9866 28.9754 69.9334 28.8526 69.917C28.7298 69.9006 28.6049 69.9217 28.4944 69.9775C28.4107 70.0202 28.3412 70.0862 28.2944 70.1675C28.245 70.2489 28.2194 70.3424 28.2204 70.4375C28.2188 70.5327 28.2445 70.6264 28.2944 70.7075C28.3423 70.7906 28.4113 70.8595 28.4944 70.9075C28.5819 70.9525 28.6789 70.9759 28.7774 70.9755C28.8928 70.9781 29.0063 70.9461 29.1034 70.8835L29.1054 70.4325Z" fill="#231F20"/>
<path d="M32.4274 71.0595C32.317 71 32.2255 70.9106 32.1634 70.8015C32.1008 70.6913 32.069 70.5663 32.0714 70.4395C32.0699 70.3129 32.1017 70.1881 32.1634 70.0775C32.2274 69.9715 32.3185 69.8845 32.4274 69.8255C32.5425 69.7634 32.6716 69.7318 32.8024 69.7335C32.9035 69.7316 33.0038 69.7503 33.0974 69.7885C33.1874 69.8213 33.2676 69.8763 33.3304 69.9485L33.2014 70.0715C33.1523 70.0185 33.0923 69.9767 33.0255 69.9491C32.9587 69.9214 32.8867 69.9086 32.8144 69.9115C32.7157 69.9085 32.618 69.932 32.5314 69.9795C32.4491 70.024 32.3801 70.0896 32.3314 70.1695C32.2868 70.2525 32.2635 70.3453 32.2634 70.4395C32.261 70.534 32.2843 70.6273 32.3308 70.7095C32.3773 70.7918 32.4453 70.8599 32.5274 70.9065C32.6149 70.9516 32.712 70.9749 32.8104 70.9745C32.883 70.976 32.9551 70.962 33.0218 70.9333C33.0886 70.9047 33.1484 70.8622 33.1974 70.8085L33.3264 70.9315C33.2652 71.0055 33.1845 71.0609 33.0934 71.0915C32.9997 71.1292 32.8994 71.1479 32.7984 71.1465C32.6696 71.147 32.5426 71.1172 32.4274 71.0595Z" fill="#231F20"/>
<path d="M35.6136 70.9646V71.1366H34.6006V69.7446H35.5776V69.9166H34.7976V70.3466H35.4916V70.5126H34.7976V70.9606L35.6136 70.9646Z" fill="#231F20"/>
<path d="M38.1071 69.7446V71.1326H37.9411L37.1121 70.1006V71.1326H36.9121V69.7446H37.0721L37.9011 70.7826V69.7446H38.1071Z" fill="#231F20"/>
<path d="M39.7829 69.9166H39.2979V69.7446H40.4398V69.9166H39.9669V71.1446H39.7669L39.7829 69.9166Z" fill="#231F20"/>
<path d="M42.6631 70.9646V71.1366H41.6631V69.7446H42.6401V69.9166H41.8601V70.3466H42.5541V70.5126H41.8601V70.9606L42.6631 70.9646Z" fill="#231F20"/>
<path d="M44.8986 71.1325L44.5986 70.7085H44.1746V71.1325H43.9746V69.7445H44.5146C44.6671 69.7332 44.8183 69.7792 44.9386 69.8735C45.0195 69.9519 45.071 70.0556 45.0844 70.1674C45.0979 70.2792 45.0725 70.3922 45.0126 70.4875C44.9623 70.5686 44.8835 70.6278 44.7916 70.6535L45.1176 71.1205L44.8986 71.1325ZM44.8246 70.4635C44.8582 70.4352 44.8848 70.3993 44.9022 70.3589C44.9195 70.3184 44.9272 70.2745 44.9246 70.2305C44.9278 70.1874 44.9204 70.1441 44.9029 70.1046C44.8855 70.065 44.8586 70.0303 44.8246 70.0035C44.7416 69.9414 44.6391 69.9109 44.5356 69.9175H44.2036V70.5315H44.5356C44.637 70.5442 44.7397 70.5208 44.8256 70.4655L44.8246 70.4635Z" fill="#231F20"/>
<path d="M0 61.5226H1.664C2.03159 61.5165 2.39478 61.6032 2.72 61.7746C3.01885 61.9412 3.2654 62.1878 3.432 62.4866C3.5976 62.8197 3.68378 63.1867 3.68378 63.5586C3.68378 63.9306 3.5976 64.2976 3.432 64.6306C3.26248 64.9257 3.01651 65.1696 2.72 65.3366C2.39478 65.5081 2.03159 65.5947 1.664 65.5886H0V61.5226ZM1.621 64.8226C1.78323 64.8295 1.94511 64.8025 2.09629 64.7433C2.24748 64.684 2.38464 64.5939 2.499 64.4786C2.70948 64.2176 2.82426 63.8924 2.82426 63.5571C2.82426 63.2218 2.70948 62.8966 2.499 62.6356C2.38434 62.5212 2.24699 62.4319 2.09577 62.3737C1.94456 62.3155 1.78283 62.2896 1.621 62.2976H0.848V64.8216L1.621 64.8226Z" fill="#231F20"/>
<path d="M5.3418 61.5216H6.1898V65.5936H5.3418V61.5216Z" fill="#231F20"/>
<path d="M11.5821 61.5216L9.99115 65.5936H9.15615L7.57715 61.5216H8.49215L9.60415 64.4266L10.7371 61.5216H11.5821Z" fill="#231F20"/>
<path d="M15.7385 64.8386V65.5936H12.8945V61.5216H15.6645V62.2646H13.7425V63.1486H15.4425V63.8796H13.7425V64.8256L15.7385 64.8386Z" fill="#231F20"/>
<path d="M22.6677 61.7006C22.9182 61.8094 23.1315 61.9887 23.2817 62.2166C23.4201 62.4528 23.4894 62.723 23.4817 62.9966C23.4896 63.2721 23.4203 63.5444 23.2817 63.7826C23.1331 64.0106 22.9191 64.1883 22.6677 64.2926C22.3843 64.4168 22.0771 64.4775 21.7677 64.4706H20.9937V65.5946H20.0938V61.5226H21.7677C22.0771 61.5157 22.3843 61.5765 22.6677 61.7006ZM22.3357 63.5436C22.4702 63.4031 22.5453 63.2161 22.5453 63.0216C22.5453 62.8271 22.4702 62.6401 22.3357 62.4996C22.1602 62.3658 21.942 62.3004 21.7217 62.3156H20.9967V63.7286H21.7217C21.9483 63.7302 22.1673 63.6471 22.3357 63.4956V63.5436Z" fill="#231F20"/>
<path d="M26.0019 65.3916C25.6846 65.2155 25.4231 64.9539 25.2469 64.6367C25.0606 64.3072 24.9653 63.9341 24.9709 63.5556C24.9652 63.1791 25.0605 62.8079 25.2469 62.4807C25.4231 62.1634 25.6846 61.9018 26.0019 61.7256C26.3357 61.5482 26.7079 61.4554 27.0859 61.4554C27.464 61.4554 27.8362 61.5482 28.1699 61.7256C28.4846 61.9053 28.7453 62.166 28.9249 62.4807C29.1114 62.8079 29.2067 63.1791 29.2009 63.5556C29.2066 63.9341 29.1113 64.3072 28.9249 64.6367C28.7453 64.9513 28.4846 65.212 28.1699 65.3916C27.8362 65.5691 27.464 65.6619 27.0859 65.6619C26.7079 65.6619 26.3357 65.5691 26.0019 65.3916ZM27.7019 64.7226C27.8883 64.6138 28.0396 64.4538 28.1379 64.2617C28.2441 64.0524 28.2971 63.8202 28.2919 63.5856C28.2969 63.3533 28.244 63.1234 28.1379 62.9166C28.04 62.7227 27.8888 62.5607 27.7019 62.4497C27.5153 62.3419 27.3035 62.2851 27.0879 62.2851C26.8724 62.2851 26.6606 62.3419 26.4739 62.4497C26.2872 62.5607 26.1359 62.7227 26.0379 62.9166C25.9319 63.1234 25.879 63.3533 25.8839 63.5856C25.8788 63.8202 25.9317 64.0524 26.0379 64.2617C26.1363 64.4538 26.2876 64.6138 26.4739 64.7226C26.6606 64.8304 26.8724 64.8872 27.0879 64.8872C27.3035 64.8872 27.5153 64.8304 27.7019 64.7226Z" fill="#231F20"/>
<path d="M31.7026 62.2646H30.4746V61.5216H33.8346V62.2646H32.6056V65.5646H31.7056L31.7026 62.2646Z" fill="#231F20"/>
<path d="M37.7395 64.7216H35.9455L35.6135 65.5936H34.6865L36.4125 61.5216H37.2965L39.0225 65.5936H38.0705L37.7395 64.7216ZM37.4565 64.0026L36.8425 62.4486L36.2285 64.0026H37.4565Z" fill="#231F20"/>
<path d="M41.1401 62.2646H39.9121V61.5216H43.2781V62.2646H42.0491V65.5646H41.1401V62.2646Z" fill="#231F20"/>
<path d="M45.5293 65.3916C45.2147 65.212 44.954 64.9512 44.7743 64.6366C44.5879 64.3072 44.4927 63.9341 44.4983 63.5556C44.4926 63.1791 44.5879 62.8079 44.7743 62.4806C44.954 62.166 45.2147 61.9053 45.5293 61.7256C45.8628 61.5446 46.2369 61.4517 46.6163 61.4556C46.9939 61.4507 47.3663 61.5438 47.6973 61.7256C48.0119 61.9053 48.2726 62.166 48.4523 62.4806C48.6387 62.8079 48.734 63.1791 48.7283 63.5556C48.7339 63.9341 48.6387 64.3072 48.4523 64.6366C48.2726 64.9512 48.0119 65.212 47.6973 65.3916C47.3663 65.5734 46.9939 65.6665 46.6163 65.6616C46.2369 65.6656 45.8627 65.5727 45.5293 65.3916ZM47.2363 64.7226C47.4211 64.6137 47.5704 64.4536 47.6663 64.2616C47.7746 64.0529 47.8295 63.8207 47.8263 63.5856C47.8294 63.3528 47.7744 63.1228 47.6663 62.9166C47.5705 62.7231 47.4213 62.561 47.2363 62.4496C47.0496 62.3419 46.8379 62.2851 46.6223 62.2851C46.4067 62.2851 46.195 62.3419 46.0083 62.4496C45.8233 62.561 45.6741 62.7231 45.5783 62.9166C45.4789 63.1146 45.4305 63.3342 45.4373 63.5556C45.4311 63.791 45.4862 64.024 45.5973 64.2316C45.6932 64.4236 45.8425 64.5837 46.0273 64.6926C46.214 64.8004 46.4257 64.8571 46.6413 64.8571C46.8568 64.8571 47.0686 64.8004 47.2553 64.6926L47.2363 64.7226Z" fill="#231F20"/>
<path d="M37.7198 41.0043C37.7198 46.9036 32.0034 53.4897 24.3644 53.4897C17.0453 53.4897 11.2859 46.8446 11.022 40.9613V26.4763C11.022 20.446 16.7324 13.6969 24.3774 13.6969C26.631 13.7319 28.8407 14.3257 30.8084 15.4251C32.776 16.5245 34.4401 18.0951 35.6514 19.9961V16.0096C34.1917 14.4708 32.4329 13.2467 30.483 12.4125C28.5331 11.5783 26.4332 11.1515 24.3124 11.1584C22.1916 11.1654 20.0946 11.6058 18.1502 12.4528C16.2058 13.2998 14.455 14.5353 13.0054 16.0836C10.2133 18.8351 8.58998 22.5577 8.47363 26.4763V41.0163C8.78655 48.1034 15.6397 56.0253 24.3464 56.0253C26.466 56.0199 28.5631 55.5913 30.5148 54.7646C32.4666 53.9378 34.2336 52.7297 35.7124 51.211C38.4999 48.5267 40.1301 44.8604 40.2562 40.9923V38.7566C39.5547 39.6542 38.6952 40.4159 37.7198 41.0043Z" fill="#231F20"/>
<path d="M20.3928 20.3641C18.8848 20.3992 17.4504 21.0233 16.3966 22.1027C15.3427 23.1821 14.7531 24.6311 14.7539 26.1397C14.7547 27.6484 15.3458 29.0968 16.4008 30.1751C17.4557 31.2534 18.8908 31.876 20.3988 31.9095H28.7496C30.2135 31.7828 31.5815 31.128 32.5983 30.067C33.6151 29.0061 34.2115 27.6115 34.2761 26.1433C34.2509 24.662 33.6677 23.2447 32.6432 22.1746C31.6187 21.1046 30.2282 20.4605 28.7496 20.3711L20.3928 20.3641Z" fill="#231F20"/>
<path d="M37.6953 0.853668V32.5785C37.7025 33.7174 37.3138 34.8235 36.5957 35.7075C35.8776 36.5916 34.8748 37.1986 33.7587 37.4249C32.6425 37.6512 31.4825 37.4826 30.4769 36.948C29.4713 36.4135 28.6826 35.5461 28.2458 34.4942V34.4392H25.5625C26.0195 36.1897 27.0974 37.7142 28.5952 38.7286C30.093 39.743 31.9085 40.1781 33.7033 39.9527C35.4982 39.7273 37.1498 38.8568 38.3503 37.5036C39.5509 36.1503 40.2185 34.4066 40.2286 32.5975V0.853668H37.6953Z" fill="#231F20"/>
</svg>
