<svg width="25" height="24" viewBox="0 0 25 24" fill="none" xmlns="http://www.w3.org/2000/svg">
<path d="M24.0898 21.9844L18.3711 16.2656C18.2773 16.1719 18.1523 16.125 17.9961 16.125H17.3398C18.0898 15.25 18.6758 14.2656 19.0977 13.1719C19.5195 12.0781 19.7305 10.9375 19.7305 9.75C19.7305 7.96875 19.293 6.33594 18.418 4.85156C17.543 3.36719 16.3633 2.1875 14.8789 1.3125C13.3945 0.4375 11.7617 0 9.98047 0C8.19922 0 6.56641 0.4375 5.08203 1.3125C3.59766 2.1875 2.41797 3.36719 1.54297 4.85156C0.667969 6.33594 0.230469 7.96875 0.230469 9.75C0.230469 11.5312 0.667969 13.1641 1.54297 14.6484C2.41797 16.1328 3.59766 17.3125 5.08203 18.1875C6.56641 19.0625 8.19922 19.5 9.98047 19.5C11.168 19.5 12.3086 19.2891 13.4023 18.8672C14.4961 18.4453 15.4805 17.8594 16.3555 17.1094V17.7656C16.3555 17.8906 16.4023 18.0156 16.4961 18.1406L22.2148 23.8125C22.3086 23.9375 22.4336 24 22.5898 24C22.7461 24 22.8867 23.9375 23.0117 23.8125L24.0898 22.7812C24.1836 22.6562 24.2305 22.5156 24.2305 22.3594C24.2305 22.2031 24.1836 22.0781 24.0898 21.9844ZM9.98047 17.25C8.63672 17.25 7.38672 16.9141 6.23047 16.2422C5.07422 15.5703 4.16016 14.6562 3.48828 13.5C2.81641 12.3438 2.48047 11.0938 2.48047 9.75C2.48047 8.40625 2.81641 7.15625 3.48828 6C4.16016 4.84375 5.07422 3.92969 6.23047 3.25781C7.38672 2.58594 8.63672 2.25 9.98047 2.25C11.3242 2.25 12.5742 2.58594 13.7305 3.25781C14.8867 3.92969 15.8008 4.84375 16.4727 6C17.1445 7.15625 17.4805 8.40625 17.4805 9.75C17.4805 11.0938 17.1445 12.3438 16.4727 13.5C15.8008 14.6562 14.8867 15.5703 13.7305 16.2422C12.5742 16.9141 11.3242 17.25 9.98047 17.25Z" fill="black"/>
</svg>
